# xmcd
#
# Track frame offsets: 
#        182
#        13280
#        24297
#        36000
#        45012
#        59390
#        68837
#        79462
#        92562
#        100437
#        112337
#        124987
#        134800
#        145825
#
# Disc length: 2098 seconds
#
# Revision: 3
# Processed by: cddbd v1.5.2PL0 Copyright (c) Steve Scherf et al.
# Submitted via: ExactAudioCopy v0.95b4
#
DISCID=c808300e
DTITLE=Jim Reeves - Distant Drums -His Greatest Hits-
DYEAR=1991
DGENRE=Country
TTITLE0=Distant drums
TTITLE1=How's the world treating you
TTITLE2=Welcome to my world
TTITLE3=I won't forget you
TTITLE4=Guilty
TTITLE5=The Hawaiian wedding song
TTITLE6=He'll have to go
TTITLE7=You'll never know
TTITLE8=You are my love
TTITLE9=In the misty moonlight
TTITLE10=I can't stop loving you
TTITLE11=Somewhere along the line
TTITLE12=Someday
TTITLE13=Adios amigo
EXTD=
EXTT0=
EXTT1=
EXTT2=
EXTT3=
EXTT4=
EXTT5=
EXTT6=
EXTT7=
EXTT8=
EXTT9=
EXTT10=
EXTT11=
EXTT12=
EXTT13=
PLAYORDER=
